<svg width="55" height="55" viewBox="0 0 55 55" fill="none" xmlns="http://www.w3.org/2000/svg">
<path d="M3.45209 0L0 4.6065L1.44967 5.70084L2.54403 4.24421V52.4538H50.7487L49.299 53.543L50.3882 55L55 51.5411L50.3882 48.091L49.299 49.5407L50.7576 50.635L4.36493 50.6346V4.2515L5.45242 5.70116L6.90906 4.60682L3.45209 0ZM25.2882 8.24496L20.7348 13.9317V46.9959H29.8326V13.9317L25.2882 8.24496ZM25.2809 11.1585L28.0134 14.5695V45.1773H22.554V14.5695L25.2809 11.1585ZM38.0197 15.5234L33.4733 21.2048V46.9953H42.5642V21.2048L38.0197 15.5234ZM38.0197 18.437L40.7449 21.848V45.1768H35.2925V21.8428L38.0197 18.437ZM12.5503 20.9827L8.0039 26.6625V46.9953H17.0965V26.6625L12.5503 20.9827ZM12.5503 23.8894L15.2756 27.3004V45.1767H9.82511V27.3004L12.5503 23.8894Z" fill="#00ADEF"/>
</svg>
