<svg xmlns="http://www.w3.org/2000/svg" width="15.724" height="15.724" viewBox="0 0 15.724 15.724">
  <g id="settings-sliders" transform="translate(0 0)">
    <path id="Path_147" data-name="Path 147" d="M.655,3.112H2.448a2.442,2.442,0,0,0,4.714,0h7.907a.655.655,0,1,0,0-1.31H7.162a2.442,2.442,0,0,0-4.714,0H.655a.655.655,0,1,0,0,1.31ZM4.8,1.31A1.147,1.147,0,1,1,3.658,2.457,1.147,1.147,0,0,1,4.8,1.31Z" fill="#fff"/>
    <path id="Path_148" data-name="Path 148" d="M15.069,10.051H13.276a2.442,2.442,0,0,0-4.713,0H.655a.655.655,0,0,0,0,1.31H8.563a2.442,2.442,0,0,0,4.713,0h1.793a.655.655,0,1,0,0-1.31Zm-4.149,1.8a1.147,1.147,0,1,1,1.147-1.147,1.147,1.147,0,0,1-1.147,1.147Z" transform="translate(0 -2.844)" fill="#fff"/>
    <path id="Path_149" data-name="Path 149" d="M15.069,18.3H7.162a2.442,2.442,0,0,0-4.714,0H.655a.655.655,0,1,0,0,1.31H2.448a2.442,2.442,0,0,0,4.714,0h7.907a.655.655,0,1,0,0-1.31ZM4.8,20.1a1.147,1.147,0,1,1,1.147-1.147A1.147,1.147,0,0,1,4.8,20.1Z" transform="translate(0 -5.69)" fill="#fff"/>
  </g>
</svg>
