<svg width="60" height="55" viewBox="0 0 60 55" fill="none" xmlns="http://www.w3.org/2000/svg">
<path d="M8.15664 38.3691C3.65937 38.3691 0 42.0278 0 46.5258C0 51.023 3.65868 54.6824 8.15664 54.6824C12.6539 54.6824 16.3133 51.0237 16.3133 46.5258C16.3133 42.0278 12.6546 38.3691 8.15664 38.3691ZM8.15664 52.7626C4.71763 52.7626 1.91981 49.9641 1.91981 46.5258C1.91981 43.0868 4.71831 40.289 8.15664 40.289C11.5956 40.289 14.3935 43.0868 14.3935 46.5258C14.3941 49.9641 11.5956 52.7626 8.15664 52.7626Z" fill="#00ADEF"/>
<path d="M36.4403 38.7752H23.1298C22.5996 38.7752 22.1699 39.2049 22.1699 39.735V53.0455C22.1699 53.5756 22.5996 54.0054 23.1298 54.0054H36.4396C36.9697 54.0054 37.3994 53.5756 37.3994 53.0455V39.7343C37.3994 39.2049 36.9704 38.7751 36.4403 38.7751L36.4403 38.7752ZM35.4804 52.085H24.0896V40.6941H35.4804V52.085Z" fill="#00ADEF"/>
<path d="M59.8724 51.8442L52.2439 38.6308C51.9005 38.0365 50.9246 38.0365 50.5813 38.6308L42.9522 51.8442C42.7815 52.1414 42.7815 52.5069 42.9522 52.804C43.1236 53.1012 43.4402 53.284 43.7836 53.284H59.0411C59.3845 53.284 59.7011 53.1012 59.8725 52.804C60.0431 52.5069 60.0431 52.1414 59.8725 51.8442H59.8724ZM45.4456 51.365L51.4127 41.0305L57.3791 51.365H45.4456Z" fill="#00ADEF"/>
<path d="M50.6692 34.7123C50.6793 34.7243 50.6947 34.729 50.7047 34.7404C50.7676 34.8107 50.8433 34.8629 50.9242 34.9124C50.9577 34.9325 50.9845 34.9613 51.0206 34.9773C51.1411 35.0316 51.2723 35.0657 51.4135 35.0657C51.5548 35.0657 51.6859 35.0316 51.8064 34.9773C51.8412 34.9613 51.868 34.9332 51.9008 34.9138C51.9818 34.8642 52.0581 34.8113 52.1217 34.7411C52.1317 34.7297 52.1471 34.725 52.1572 34.7136L55.9163 30.1079C56.2516 29.6976 56.19 29.0932 55.7797 28.7578C55.3694 28.4232 54.765 28.4841 54.429 28.8944L52.3721 31.4124V26.861C52.3721 26.3308 51.9424 25.9011 51.4123 25.9011C50.8821 25.9011 50.4524 26.3308 50.4524 26.861V31.4124L48.3962 28.893C48.0609 28.482 47.4551 28.4211 47.0462 28.7565C46.6359 29.0918 46.5743 29.6962 46.9096 30.1065L50.6692 34.7123Z" fill="#00ADEF"/>
<path d="M7.41283 34.7124C7.42287 34.7244 7.43826 34.7291 7.4483 34.7398C7.51122 34.8101 7.58752 34.863 7.66919 34.9125C7.70199 34.9326 7.72876 34.9607 7.76356 34.9761C7.88404 35.0303 8.01591 35.0645 8.15647 35.0645C8.29703 35.0645 8.42888 35.0303 8.54938 34.9761C8.58485 34.96 8.6123 34.9313 8.64576 34.9112C8.72675 34.8623 8.80239 34.8094 8.8653 34.7392C8.87534 34.7278 8.89073 34.7231 8.90077 34.7111L12.6604 30.1053C12.995 29.695 12.9341 29.0906 12.5238 28.7553C12.1142 28.4206 11.5084 28.4815 11.1738 28.8918L9.11757 31.4112L9.11623 26.861C9.11623 26.3308 8.68652 25.9011 8.15639 25.9011C7.62627 25.9011 7.19655 26.3308 7.19655 26.861V31.4124L5.14103 28.893C4.80637 28.4834 4.20194 28.4218 3.79031 28.7565C3.38001 29.0918 3.31843 29.6962 3.65376 30.1065L7.41283 34.7124Z" fill="#00ADEF"/>
<path d="M16.7444 11.4276H28.8247V18.2489H25.4659C24.9357 18.2489 24.506 18.6786 24.506 19.2087C24.506 19.7388 24.9357 20.1686 25.4659 20.1686L28.8247 20.1679V22.8305C28.8247 23.3606 29.2544 23.7903 29.7845 23.7903C30.3146 23.7903 30.7443 23.3606 30.7443 22.8305V20.1679H34.1032C34.6333 20.1679 35.063 19.7382 35.063 19.208C35.063 18.6779 34.6333 18.2482 34.1032 18.2482L30.7443 18.2489V11.4276H42.8246C43.3547 11.4276 43.7844 10.9979 43.7844 10.4677V0.959838C43.7844 0.429713 43.3547 0 42.8246 0L16.745 0.000669339C16.2149 0.000669339 15.7852 0.430383 15.7852 0.960507V10.4684C15.7858 10.9979 16.2155 11.4276 16.745 11.4276H16.7444ZM17.7043 1.91967H41.8647V9.50862H17.7043V1.91967Z" fill="#00ADEF"/>
<path d="M29.7843 25.9016C29.2542 25.9016 28.8245 26.3313 28.8245 26.8615V31.4129L26.7683 28.8935C26.433 28.4839 25.8292 28.4223 25.4182 28.757C25.0079 29.0923 24.9464 29.6967 25.2817 30.107L29.0408 34.7127C29.0502 34.7248 29.0662 34.7295 29.0763 34.7409C29.1392 34.8111 29.2148 34.8633 29.2958 34.9129C29.3293 34.933 29.356 34.9617 29.3922 34.9778C29.512 35.0313 29.6439 35.0648 29.7844 35.0648C29.925 35.0648 30.0568 35.0307 30.1773 34.9765C30.2128 34.9604 30.2402 34.9316 30.2737 34.9115C30.3547 34.8627 30.4303 34.8098 30.4932 34.7395C30.5033 34.7281 30.5187 34.7235 30.5287 34.7114L34.2878 30.1057C34.6225 29.6954 34.5616 29.0909 34.1513 28.7556C33.7416 28.4209 33.1365 28.4818 32.8012 28.8922L30.7443 31.4122V26.8608C30.7443 26.3314 30.3146 25.9016 29.7845 25.9016L29.7843 25.9016Z" fill="#00ADEF"/>
<path d="M47.8963 20.1683H50.4532V22.8309C50.4532 23.361 50.8829 23.7907 51.413 23.7907C51.9431 23.7907 52.3728 23.361 52.3728 22.8309V19.2084C52.3728 18.6782 51.9431 18.2485 51.413 18.2485L47.8964 18.2492C47.3662 18.2492 46.9365 18.6789 46.9365 19.209C46.9372 19.7385 47.3669 20.1682 47.8964 20.1682L47.8963 20.1683Z" fill="#00ADEF"/>
<path d="M8.157 23.7907C8.68713 23.7907 9.11684 23.361 9.11684 22.8308V20.1682H11.6737C12.2039 20.1682 12.6336 19.7385 12.6336 19.2084C12.6336 18.6782 12.2039 18.2485 11.6737 18.2485H8.1571C7.62698 18.2485 7.19727 18.6782 7.19727 19.2084V22.8309C7.19794 23.361 7.62765 23.7907 8.1571 23.7907L8.157 23.7907Z" fill="#00ADEF"/>
<path d="M20.4291 18.249H16.1112C15.5811 18.249 15.1514 18.6787 15.1514 19.2089C15.1514 19.739 15.5811 20.1687 16.1112 20.1687H20.4291C20.9592 20.1687 21.3889 19.739 21.3889 19.2089C21.3889 18.6787 20.9592 18.249 20.4291 18.249Z" fill="#00ADEF"/>
<path d="M44.4182 19.2086C44.4182 18.6785 43.9885 18.2488 43.4584 18.2488H39.1405C38.6104 18.2488 38.1807 18.6785 38.1807 19.2086C38.1807 19.7387 38.6104 20.1685 39.1405 20.1685H43.4584C43.9885 20.1685 44.4182 19.7387 44.4182 19.2086Z" fill="#00ADEF"/>
</svg>
