<svg width="56" height="53" viewBox="0 0 56 53" fill="none" xmlns="http://www.w3.org/2000/svg">
<path d="M36.578 51.9484H18.5013C18.065 51.9484 17.708 51.5542 17.708 51.0725V1.80122C17.708 1.31946 18.065 0.925293 18.5013 0.925293H36.578C37.0143 0.925293 37.3713 1.31946 37.3713 1.80122V51.0725C37.3713 51.5542 37.0143 51.9484 36.578 51.9484ZM19.2946 50.1965H35.7847V2.67715H19.2946V50.1965Z" fill="#00ADEF"/>
<path d="M33.1865 28.868H21.8821C21.4458 28.868 21.0889 28.4738 21.0889 27.9921V6.25801C21.0889 5.77625 21.4458 5.38208 21.8821 5.38208H33.1865C33.6228 5.38208 33.9798 5.77625 33.9798 6.25801V27.9921C33.9798 28.4738 33.6228 28.868 33.1865 28.868ZM22.6754 27.1161H32.3933V7.13394H22.6754V27.1161Z" fill="#00ADEF"/>
<path d="M30.2315 13.3205H24.8372C24.4009 13.3205 24.0439 12.9263 24.0439 12.4445C24.0439 11.9628 24.4009 11.5686 24.8372 11.5686H30.2315C30.6678 11.5686 31.0248 11.9628 31.0248 12.4445C31.0248 12.9263 30.6777 13.3205 30.2315 13.3205Z" fill="#00ADEF"/>
<path d="M30.2315 17.9955H24.8372C24.4009 17.9955 24.0439 17.6013 24.0439 17.1196C24.0439 16.6378 24.4009 16.2437 24.8372 16.2437H30.2315C30.6678 16.2437 31.0248 16.6378 31.0248 17.1196C31.0248 17.6013 30.6777 17.9955 30.2315 17.9955Z" fill="#00ADEF"/>
<path d="M30.2315 22.6813H24.8372C24.4009 22.6813 24.0439 22.2871 24.0439 21.8054C24.0439 21.3236 24.4009 20.9294 24.8372 20.9294H30.2315C30.6678 20.9294 31.0248 21.3236 31.0248 21.8054C31.0248 22.2871 30.6777 22.6813 30.2315 22.6813Z" fill="#00ADEF"/>
<path d="M27.2444 47.9072C24.9092 47.5715 23.3609 45.2052 23.7893 42.6267C24.2176 40.0483 26.4616 38.2272 28.7967 38.5628C31.1319 38.8985 32.6802 41.2648 32.2518 43.8433C31.8235 46.4217 29.5796 48.2429 27.2444 47.9072V47.9072ZM28.5243 40.2028C27.0111 39.9853 25.563 41.1605 25.2855 42.8313C25.0079 44.5022 26.007 46.0292 27.5202 46.2467C29.0334 46.4642 30.4815 45.289 30.7591 43.6182C31.0349 41.9577 30.0358 40.4306 28.5243 40.2028Z" fill="#00ADEF"/>
<path d="M18.87 52.0231H0.793275C0.356974 52.0231 0 51.6289 0 51.1472V1.87593C0 1.39417 0.356974 1 0.793275 1H18.87C19.3063 1 19.6633 1.39417 19.6633 1.87593V51.1472C19.6633 51.6289 19.3063 52.0231 18.87 52.0231ZM1.58655 50.2712H18.0767V2.75186H1.58655V50.2712Z" fill="#00ADEF"/>
<path d="M15.4785 28.9427H4.17413C3.73783 28.9427 3.38086 28.5485 3.38086 28.0668V6.33272C3.38086 5.85095 3.73783 5.45679 4.17413 5.45679H15.4785C15.9148 5.45679 16.2718 5.85095 16.2718 6.33272V28.0668C16.2718 28.5485 15.9148 28.9427 15.4785 28.9427ZM4.96741 27.1908H14.6853V7.20864H4.96741V27.1908Z" fill="#00ADEF"/>
<path d="M12.5235 13.3952H7.12921C6.69291 13.3952 6.33594 13.001 6.33594 12.5192C6.33594 12.0375 6.69291 11.6433 7.12921 11.6433H12.5235C12.9598 11.6433 13.3168 12.0375 13.3168 12.5192C13.3168 13.001 12.9697 13.3952 12.5235 13.3952Z" fill="#00ADEF"/>
<path d="M12.5235 18.0702H7.12921C6.69291 18.0702 6.33594 17.676 6.33594 17.1943C6.33594 16.7125 6.69291 16.3184 7.12921 16.3184H12.5235C12.9598 16.3184 13.3168 16.7125 13.3168 17.1943C13.3168 17.676 12.9697 18.0702 12.5235 18.0702Z" fill="#00ADEF"/>
<path d="M12.5235 22.756H7.12921C6.69291 22.756 6.33594 22.3618 6.33594 21.8801C6.33594 21.3983 6.69291 21.0042 7.12921 21.0042H12.5235C12.9598 21.0042 13.3168 21.3983 13.3168 21.8801C13.3168 22.3618 12.9697 22.756 12.5235 22.756Z" fill="#00ADEF"/>
<path d="M9.53638 47.9819C7.20122 47.6462 5.6529 45.2799 6.08125 42.7015C6.50961 40.123 8.75355 38.3019 11.0887 38.6376C13.4239 38.9732 14.9722 41.3395 14.5438 43.918C14.1155 46.4964 11.8715 48.3176 9.53638 47.9819V47.9819ZM10.8163 40.2775C9.30309 40.06 7.85503 41.2352 7.57745 42.906C7.29988 44.5769 8.29904 46.1039 9.81223 46.3214C11.3254 46.5389 12.7735 45.3637 13.0511 43.6929C13.3269 42.0324 12.3278 40.5053 10.8163 40.2775Z" fill="#00ADEF"/>
<path d="M55.2069 51.9484H37.1302C36.6939 51.9484 36.3369 51.5542 36.3369 51.0725V1.80122C36.3369 1.31946 36.6939 0.925293 37.1302 0.925293H55.2069C55.6432 0.925293 56.0002 1.31946 56.0002 1.80122V51.0725C56.0002 51.5542 55.6432 51.9484 55.2069 51.9484ZM37.9235 50.1965H54.4136V2.67715H37.9235V50.1965Z" fill="#00ADEF"/>
<path d="M51.8154 28.868H40.511C40.0747 28.868 39.7178 28.4738 39.7178 27.9921V6.25801C39.7178 5.77625 40.0747 5.38208 40.511 5.38208H51.8154C52.2518 5.38208 52.6087 5.77625 52.6087 6.25801V27.9921C52.6087 28.4738 52.2518 28.868 51.8154 28.868ZM41.3043 27.1161H51.0222V7.13394H41.3043V27.1161Z" fill="#00ADEF"/>
<path d="M48.8604 13.3205H43.4661C43.0298 13.3205 42.6729 12.9263 42.6729 12.4445C42.6729 11.9628 43.0298 11.5686 43.4661 11.5686H48.8604C49.2967 11.5686 49.6537 11.9628 49.6537 12.4445C49.6537 12.9263 49.3066 13.3205 48.8604 13.3205Z" fill="#00ADEF"/>
<path d="M48.8604 17.9955H43.4661C43.0298 17.9955 42.6729 17.6013 42.6729 17.1196C42.6729 16.6378 43.0298 16.2437 43.4661 16.2437H48.8604C49.2967 16.2437 49.6537 16.6378 49.6537 17.1196C49.6537 17.6013 49.3066 17.9955 48.8604 17.9955Z" fill="#00ADEF"/>
<path d="M48.8604 22.6813H43.4661C43.0298 22.6813 42.6729 22.2871 42.6729 21.8054C42.6729 21.3236 43.0298 20.9294 43.4661 20.9294H48.8604C49.2967 20.9294 49.6537 21.3236 49.6537 21.8054C49.6537 22.2871 49.3066 22.6813 48.8604 22.6813Z" fill="#00ADEF"/>
<path d="M45.4983 47.9072C43.1631 47.5715 41.6148 45.2052 42.0432 42.6267C42.4715 40.0483 44.7155 38.2272 47.0506 38.5628C49.3858 38.8985 50.9341 41.2648 50.5058 43.8433C50.0774 46.4217 47.8335 48.2429 45.4983 47.9072V47.9072ZM46.7782 40.2028C45.265 39.9853 43.8169 41.1605 43.5394 42.8313C43.2618 44.5022 44.261 46.0292 45.7741 46.2467C47.2873 46.4642 48.7354 45.289 49.013 43.6182C49.2888 41.9577 48.2897 40.4306 46.7782 40.2028Z" fill="#00ADEF"/>
</svg>
