<?xml version="1.0" encoding="UTF-8" standalone="no"?>
<svg
   xmlns:dc="http://purl.org/dc/elements/1.1/"
   xmlns:cc="http://creativecommons.org/ns#"
   xmlns:rdf="http://www.w3.org/1999/02/22-rdf-syntax-ns#"
   xmlns:svg="http://www.w3.org/2000/svg"
   xmlns="http://www.w3.org/2000/svg"
   viewBox="0 0 2624.0667 846.50665"
   height="846.50665"
   width="2624.0667"
   xml:space="preserve"
   id="svg2"
   version="1.1"><metadata
     id="metadata8"><rdf:RDF><cc:Work
         rdf:about=""><dc:format>image/svg+xml</dc:format><dc:type
           rdf:resource="http://purl.org/dc/dcmitype/StillImage" /></cc:Work></rdf:RDF></metadata><defs
     id="defs6" /><g
     transform="matrix(1.3333333,0,0,-1.3333333,0,846.50667)"
     id="g10"><g
       transform="scale(0.1)"
       id="g12"><path
         id="path14"
         style="fill:#fff;fill-opacity:1;fill-rule:nonzero;stroke:none"
         d="m 6885.43,4147.04 c -345.28,104.29 -596.7,424.88 -596.7,804.16 0,68.48 8.19,135.04 23.65,198.76 l 545.41,-70.05 c 0,0 209.34,-9.3 201.58,-379.92 -7.52,-359.75 -173.94,-552.95 -173.94,-552.95" /><path
         id="path16"
         style="fill:#fff;fill-opacity:1;fill-rule:nonzero;stroke:none"
         d="m 7372.88,4147.04 c 345.27,104.29 596.7,424.88 596.7,804.16 0,68.48 -8.2,135.04 -23.65,198.76 l -545.41,-70.05 c 0,0 -209.34,-9.3 -201.58,-379.92 7.52,-359.75 173.94,-552.95 173.94,-552.95" /><path
         id="path18"
         style="fill:#fff;fill-opacity:1;fill-rule:nonzero;stroke:none"
         d="m 7129.16,5552.49 c 70.24,0 127.18,-56.95 127.18,-127.19 0,-54.59 -37.57,-95.49 -83.09,-119.68 -5.56,-2.95 -10.76,-5.51 -9.63,-14.15 1.17,-9 27.19,-13.88 38.41,-16.45 l 733.14,-85.1 c -102.85,347.58 -424.56,601.19 -805.51,601.19 h -1.01 c -380.95,0 -702.66,-253.61 -805.52,-601.19 l 733.14,85.1 c 11.22,2.57 37.24,7.45 38.42,16.45 1.12,8.64 -4.07,11.2 -9.63,14.15 -45.52,24.19 -83.09,65.09 -83.09,119.68 0,70.24 56.94,127.19 127.19,127.19 v 0" /><path
         id="path20"
         style="fill:#fff;fill-opacity:1;fill-rule:nonzero;stroke:none"
         d="m 7464.11,3552.5 49.61,31.01 c 0,0 -235.7,319.43 -762.93,319.43 -269.82,0 -409.38,-108.54 -598.56,-108.54 0,0 -77.54,-9.3 -151.97,37.22 0,0 89.94,-130.27 415.58,-130.27 238.8,0 409.38,139.57 576.85,139.57 229.51,0 400.08,-204.69 471.42,-288.42" /><path
         id="path22"
         style="fill:#fff;fill-opacity:1;fill-rule:nonzero;stroke:none"
         d="m 6732.18,3552.5 -49.62,31.01 c 0,0 235.7,319.43 762.93,319.43 269.81,0 409.38,-108.54 598.57,-108.54 0,0 77.53,-9.3 151.96,37.22 0,0 -89.94,-130.27 -415.58,-130.27 -238.8,0 -409.37,139.57 -576.86,139.57 -229.49,0 -400.07,-204.69 -471.4,-288.42" /><path
         id="path24"
         style="fill:#fff;fill-opacity:1;fill-rule:nonzero;stroke:none"
         d="m 6480.97,3930.86 c -9.3,-24.82 -110.1,4.64 -178.33,-15.51 -76.23,-22.52 -479.16,-71.33 -655.94,347.35 0,0 167.48,-179.88 297.73,-192.28 130.26,-12.41 272.92,-43.42 393.88,-111.66 l 27.91,-6.2 c 0,0 -3.88,12.41 -15.51,18.62 -15.95,8.5 -141.28,49.08 -201.59,248.1 -31.01,102.35 -24.81,176.78 -37.22,229.51 0,0 136.47,-151.97 192.29,-248.11 55.82,-96.15 62.03,-204.7 176.78,-269.82" /><path
         id="path26"
         style="fill:#fff;fill-opacity:1;fill-rule:nonzero;stroke:none"
         d="m 6070.04,4141.75 c -10.11,-10.11 -35.67,6.2 -44.97,10.85 -9.31,4.66 -76.29,35.24 -190.73,75.99 -113.2,40.31 -324.1,218.64 -303.94,524.13 0,0 29.46,-114.75 116.3,-190.74 86.84,-75.98 117.86,-85.28 170.58,-147.31 52.72,-62.03 172.12,-203.14 176.77,-201.59 4.66,1.55 6.21,9.3 -3.1,17.06 -9.3,7.75 -40.31,85.28 -60.47,111.65 -20.16,26.36 -80.64,207.79 7.75,431.08 0,0 94.59,-162.82 88.39,-327.19 -6.2,-164.37 -13.96,-125.6 26.36,-262.06 0,0 21.71,-37.22 17.06,-41.87" /><path
         id="path28"
         style="fill:#fff;fill-opacity:1;fill-rule:nonzero;stroke:none"
         d="m 5806.42,4540.27 c -5.59,-5.59 -29.46,29.47 -48.07,62.03 -18.61,32.57 -148.86,172.13 -165.92,200.04 -17.06,27.91 -162.82,204.69 -52.72,466.75 0,0 10.85,3.11 10.85,-58.92 0,-62.03 57.37,-200.04 103.89,-258.97 46.52,-58.92 88.4,-153.51 97.7,-254.3 0,0 6.2,-18.62 13.96,-20.17 7.75,-1.55 7.75,18.61 7.75,18.61 0,0 -6.2,93.04 -6.2,156.62 0,63.58 27.91,172.13 88.38,234.16 0,0 27.92,31.01 44.97,68.23 0,0 10.86,24.81 26.37,37.21 0,0 12.4,-178.33 -48.08,-344.25 -60.47,-165.92 -80.63,-193.84 -71.33,-283.78 0,0 1.55,-20.15 -1.55,-23.26" /><path
         id="path30"
         style="fill:#fff;fill-opacity:1;fill-rule:nonzero;stroke:none"
         d="m 5704.08,5030.29 c -6.21,0 -10.86,21.71 -13.96,38.77 -3.1,17.06 -21.71,116.3 -34.11,138.01 -12.41,21.71 -58.93,120.95 -60.48,237.25 -1.55,116.3 51.17,274.47 169.03,400.08 0,0 -4.66,-37.22 -35.67,-119.41 -31.02,-82.18 -12.41,-159.71 -9.3,-173.67 3.09,-13.96 13.95,-109.99 13.95,-155.07 0,-35.67 -9.31,-158.17 -17.06,-182.98 0,0 -3.1,-17.06 3.11,-17.06 6.2,0 12.4,13.96 12.4,13.96 0,0 6.2,96.14 77.53,182.98 71.34,86.84 200.04,139.56 220.2,178.33 0,0 -9.3,-136.46 -159.72,-296.18 -133.94,-142.24 -94.59,-69.78 -138.01,-186.09 0,0 -18.61,-43.41 -18.61,-52.72 0,-9.3 -9.3,-6.2 -9.3,-6.2" /><path
         id="path32"
         style="fill:#fff;fill-opacity:1;fill-rule:nonzero;stroke:none"
         d="m 5786.26,5489.29 c 0,0 -3.1,18.61 20.16,60.48 23.26,41.87 -1.55,116.3 29.47,224.85 31.01,108.54 88.38,294.63 307.03,406.27 0,0 -21.71,-20.16 -32.57,-35.66 -10.85,-15.51 -69.78,-127.16 -86.83,-204.69 -17.06,-77.54 -91.49,-207.79 -119.4,-237.26 -27.92,-29.46 -15.51,-32.56 -15.51,-32.56 0,0 13.95,3.1 27.91,24.81 13.96,21.71 85.29,102.35 164.37,120.95 79.09,18.61 204.69,55.83 212.45,63.58 0,0 -136.46,-139.56 -262.07,-210.89 -125.6,-71.33 -139.56,-49.62 -213.99,-145.76 0,0 -24.81,-34.12 -31.02,-34.12" /><path
         id="path34"
         style="fill:#fff;fill-opacity:1;fill-rule:nonzero;stroke:none"
         d="m 6087.09,5903.32 c 0,0 0,12.41 23.26,34.12 23.27,21.7 46.53,86.84 86.84,147.31 40.32,60.48 131.81,218.65 369.07,255.87 0,0 -71.33,-52.73 -82.19,-69.78 -10.85,-17.07 -80.64,-108.55 -111.65,-139.57 -31.01,-31.01 -119.4,-96.14 -148.86,-110.1 0,0 -15.51,-12.4 -12.41,-17.05 3.1,-4.65 18.61,4.65 18.61,4.65 0,0 82.18,63.58 181.43,66.68 99.24,3.1 203.14,-1.55 218.64,-3.1 0,0 -93.04,-63.58 -314.78,-103.9 -221.75,-40.32 -179.89,-41.87 -214,-63.58 0,0 -7.75,-6.2 -13.96,-1.55" /><path
         id="path36"
         style="fill:#fff;fill-opacity:1;fill-rule:nonzero;stroke:none"
         d="m 6482.52,6160.73 c 0,0 4.65,12.41 40.32,23.26 35.66,10.86 32.56,44.97 141.11,102.35 108.55,57.37 221.75,83.73 336.5,35.66 0,0 -48.07,-6.2 -55.83,-9.3 -7.75,-3.1 -89.94,-24.81 -113.2,-37.22 -23.26,-12.4 -142.66,-65.12 -190.73,-74.43 -48.07,-9.3 -24.81,-12.4 -24.81,-12.4 0,0 10.85,-4.66 20.16,-4.66 9.3,0 116.3,10.86 186.08,-13.95 69.78,-24.81 68.23,-34.12 96.14,-43.42 27.91,-9.3 60.48,-15.51 65.13,-26.36 0,0 -69.78,-6.2 -111.65,-6.2 -41.87,0 -151.97,10.85 -204.69,35.66 -52.72,24.82 -113.2,35.67 -133.36,31.01 -20.16,-4.64 -44.97,-4.64 -51.17,0" /><path
         id="path38"
         style="fill:#fff;fill-opacity:1;fill-rule:nonzero;stroke:none"
         d="m 6922.91,6215.01 c 0,0 4.66,6.2 35.67,12.4 31.01,6.21 38.77,24.82 111.65,40.32 72.88,15.51 186.08,29.47 289.97,-41.87 0,0 -63.58,1.55 -77.53,1.55 -13.95,0 -134.91,-21.71 -162.82,-21.71 -27.91,0 -83.74,12.41 -91.49,3.11 -7.75,-9.31 51.17,-21.71 60.47,-24.82 9.31,-3.1 51.18,-6.2 103.9,-57.37 52.73,-51.17 89.94,-79.08 96.14,-82.19 0,0 -155.07,35.67 -193.83,57.38 -38.77,21.71 -105.45,88.39 -116.3,93.04 -10.86,4.65 -55.83,20.16 -55.83,20.16" /><path
         id="path40"
         style="fill:#fff;fill-opacity:1;fill-rule:nonzero;stroke:none"
         d="m 7281.11,6151.43 c 0,0 97.71,3.11 169.03,-41.87 71.33,-44.97 128.71,-103.9 134.91,-139.56 0,0 -40.32,34.12 -66.67,41.87 -26.37,7.75 -100.79,49.62 -116.3,58.93 -15.51,9.3 -105.46,66.67 -120.97,80.63" /><path
         id="path42"
         style="fill:#fff;fill-opacity:1;fill-rule:nonzero;stroke:none"
         d="m 7740.12,3913.8 c 0,0 13.95,13.95 60.47,54.27 46.52,40.32 58.94,99.24 110.1,190.74 51.18,91.49 94.6,155.06 198.49,248.1 0,0 -18.6,-69.78 -20.16,-91.49 -1.55,-21.7 -18.6,-142.65 -77.53,-212.43 -58.92,-69.78 -62.03,-85.29 -130.25,-127.17 0,0 -26.37,-18.6 -24.82,-24.81 1.56,-6.2 46.52,1.55 46.52,1.55 0,0 49.63,18.62 65.14,27.92 15.5,9.3 85.29,44.97 113.19,55.82 27.91,10.86 51.17,21.71 113.2,40.32 62.03,18.61 286.88,75.98 375.26,218.65 0,0 -26.36,-83.74 -58.91,-122.5 -32.57,-38.77 -217.1,-282.23 -472.96,-277.58 0,0 -100.8,7.75 -153.53,17.05 -52.72,9.31 -71.32,9.31 -79.07,7.75 -7.76,-1.54 -57.39,-10.84 -65.14,-6.19" /><path
         id="path44"
         style="fill:#fff;fill-opacity:1;fill-rule:nonzero;stroke:none"
         d="m 8312.32,4783.73 c 0,0 -96.13,-150.42 -117.85,-367.51 -21.71,-217.1 15.51,-151.97 -20.16,-248.12 0,0 -12.4,-24.8 -7.75,-26.35 4.65,-1.55 23.26,9.3 91.48,51.17 68.24,41.87 134.92,29.46 280.68,169.02 145.76,139.57 175.23,417.14 178.33,440.4 0,0 -21.71,-21.71 -32.57,-58.92 -10.84,-37.22 -34.1,-66.69 -38.77,-71.34 -4.64,-4.65 -162.82,-178.33 -181.41,-193.83 -18.62,-15.51 -111.66,-128.71 -131.81,-161.27 -20.17,-32.57 -79.09,-91.49 -89.95,-86.84 0,0 1.55,13.95 6.2,24.81 4.66,10.85 48.07,69.78 66.69,138.01 18.6,68.23 23.26,110.1 24.81,153.52 1.55,43.42 -26.37,203.13 -27.92,237.25" /><path
         id="path46"
         style="fill:#fff;fill-opacity:1;fill-rule:nonzero;stroke:none"
         d="m 8442.58,4574.39 c 0,0 -9.67,22.53 -1.54,38.77 4.64,9.3 9.29,83.74 -18.62,144.21 -27.91,60.48 -88.39,227.95 -83.73,339.6 4.64,111.65 17.06,127.16 17.06,127.16 0,0 31.01,-91.49 40.31,-107 9.3,-15.51 102.34,-179.88 94.58,-269.82 -7.75,-89.94 -12.39,-117.85 -7.75,-119.4 4.67,-1.56 15.51,10.85 17.06,21.7 1.56,10.86 17.06,72.89 46.52,145.77 29.46,72.88 148.87,234.15 175.23,341.15 0,0 38.77,-186.08 -65.12,-359.76 -103.91,-173.68 -114.75,-134.91 -158.18,-213.99 -43.41,-79.09 -49.61,-88.39 -55.82,-88.39" /><path
         id="path48"
         style="fill:#fff;fill-opacity:1;fill-rule:nonzero;stroke:none"
         d="m 8537.17,5065.95 c -7.76,1.55 -3.09,72.89 -21.71,96.15 -18.61,23.26 -178.33,212.44 -212.44,401.62 0,0 100.79,-102.34 117.84,-113.2 17.07,-10.85 85.29,-79.08 105.46,-138.01 20.15,-58.92 15.51,-108.54 23.26,-110.09 7.76,-1.55 7.76,65.12 7.76,65.12 0,0 1.54,130.26 12.39,192.29 10.87,62.03 38.77,165.92 26.37,218.64 0,0 60.48,-96.14 57.37,-232.6 -3.09,-136.46 -60.48,-245 -68.23,-260.51 -7.75,-15.51 -29.46,-82.19 -29.46,-96.15 0,-13.95 -18.61,-23.26 -18.61,-23.26" /><path
         id="path50"
         style="fill:#fff;fill-opacity:1;fill-rule:nonzero;stroke:none"
         d="m 8347.99,6036.68 c 0,0 209.35,-124.05 176.78,-539.64 0,0 0,-18.61 -12.41,1.55 -12.41,20.16 -57.37,77.54 -77.53,89.95 -20.16,12.4 -206.25,125.6 -285.33,299.28 0,0 12.41,3.1 31.01,-13.96 18.62,-17.06 75.99,-46.52 85.29,-51.17 9.3,-4.65 74.44,-21.71 122.51,-74.44 48.06,-52.72 65.12,-91.49 79.07,-122.5 0,0 13.97,-10.86 4.67,20.16 -9.31,31.01 -10.86,51.17 -35.68,89.94 -24.8,38.77 -46.52,108.55 -49.61,156.62 -3.11,48.07 -17.06,119.4 -38.77,144.21" /><path
         id="path52"
         style="fill:#fff;fill-opacity:1;fill-rule:nonzero;stroke:none"
         d="m 8312.32,5890.92 c 0,0 4.66,27.91 -15.51,66.68 -20.15,38.76 -4.42,81.88 -68.23,184.53 -35.65,57.37 -159.71,102.34 -159.71,102.34 0,0 35.66,-49.62 58.92,-77.53 23.26,-27.91 31.01,-48.07 38.77,-62.03 7.75,-13.96 50.82,-55.3 66.68,-79.08 3.1,-4.66 9.3,-17.06 9.3,-24.81 0,-7.76 -17.06,4.64 -21.71,9.3 -4.64,4.65 -80.63,62.03 -128.7,71.33 -48.07,9.3 -139.56,18.61 -164.37,31.01 0,0 108.54,-97.69 226.4,-127.15 117.85,-29.46 158.16,-94.59 158.16,-94.59" /><path
         id="path54"
         style="fill:#fff;fill-opacity:1;fill-rule:nonzero;stroke:none"
         d="m 8067.32,6146.78 c 0,0 -108.55,147.32 -302.39,144.21 0,0 10.86,-10.85 32.57,-15.51 21.71,-4.64 60.48,-43.41 80.63,-55.82 20.17,-12.41 62.02,-43.42 189.19,-72.88" /><path
         id="path56"
         style="fill:#fff;fill-opacity:1;fill-rule:nonzero;stroke:none"
         d="M 2115.66,6348.8 V 4526.99 c 0,-159.23 -26.54,-299.86 -79.61,-421.81 -53.07,-121.95 -126.42,-224.01 -219.9,-306.16 -93.56,-82.14 -205.08,-144.06 -334.63,-185.76 -129.55,-41.69 -270.78,-62.56 -423.69,-62.56 -154.197,0 -296.029,20.87 -425.58,62.56 -129.551,41.7 -241.066,103.62 -334.59,185.76 -93.566,82.15 -166.519,184.21 -218.9491,306.16 C 26.2383,4227.13 0,4367.76 0,4526.99 V 6348.8 H 568.742 V 4526.99 c 0,-180.74 43.285,-312.48 129.852,-395.23 86.566,-82.83 206.328,-124.18 359.236,-124.18 154.2,0 273.96,41.35 359.24,124.18 85.32,82.75 127.96,214.49 127.96,395.23 V 6348.8 h 570.63" /><path
         id="path58"
         style="fill:#fff;fill-opacity:1;fill-rule:nonzero;stroke:none"
         d="m 4826.56,3588.61 h -568.7 L 3150.73,5404.72 V 3588.61 h -568.7 V 6348.8 h 568.7 L 4259.75,4528.92 V 6348.8 h 566.81 V 3588.61" /><path
         id="path60"
         style="fill:#fff;fill-opacity:1;fill-rule:nonzero;stroke:none"
         d="m 385.543,2487.96 c -43.109,0 -78.156,-14.89 -104.965,-44.68 -26.808,-29.88 -43.984,-72.46 -51.519,-128.01 h 302.535 v 17.79 c -1.051,49.33 -14.106,87.44 -39.164,114.42 -25.059,26.99 -60.715,40.48 -106.887,40.48 z m 24.883,-682.34 c -119.422,0 -216.676,37.32 -291.672,112.06 C 43.7539,1992.41 6.25391,2091.94 6.25391,2216.27 v 21.46 c 0,83.41 15.85939,157.97 47.48829,223.77 31.543,65.71 76.3128,116.44 134.3128,152.02 57.914,35.57 123.976,53.35 198.273,53.35 111.36,0 199.063,-35.83 263.024,-107.5 63.957,-71.67 95.937,-173.22 95.937,-304.73 v -90.59 H 226.781 c 7.012,-54.23 28.211,-97.78 63.61,-130.46 35.394,-32.77 80.168,-49.15 134.312,-49.15 83.762,0 149.211,30.93 196.434,92.87 l 106.804,-122.05 c -32.593,-47.05 -76.75,-83.76 -132.386,-110.13 -55.723,-26.37 -117.407,-39.51 -185.129,-39.51" /><path
         id="path62"
         style="fill:#fff;fill-opacity:1;fill-rule:nonzero;stroke:none"
         d="m 1078.14,2651.45 6.75,-95.94 c 58.26,74.21 136.24,111.36 234.1,111.36 86.22,0 150.44,-25.84 192.58,-77.54 42.14,-51.69 63.79,-128.97 64.75,-231.83 v -536.55 h -217.46 v 531.21 c 0,47.05 -10.08,81.22 -30.14,102.42 -20.07,21.2 -53.45,31.89 -100.06,31.89 -61.24,0 -107.15,-26.63 -137.73,-79.81 V 1820.95 H 873.469 v 830.5 h 204.671" /><path
         id="path64"
         style="fill:#fff;fill-opacity:1;fill-rule:nonzero;stroke:none"
         d="m 2055.14,2091.94 151.22,559.51 h 227.27 l -274.67,-830.5 h -207.65 l -274.67,830.5 h 227.27 l 151.23,-559.51" /><path
         id="path66"
         style="fill:#fff;fill-opacity:1;fill-rule:nonzero;stroke:none"
         d="m 2768.06,1820.95 h -218.25 v 830.5 h 218.25 z m -231.04,1045.42 c 0,33.3 10.95,60.72 32.77,82.19 21.81,21.46 51.52,32.24 89.19,32.24 37.06,0 66.68,-10.78 88.75,-32.24 22.08,-21.47 33.12,-48.89 33.12,-82.19 0,-33.73 -11.12,-61.33 -33.47,-82.88 -22.34,-21.47 -51.78,-32.24 -88.4,-32.24 -36.62,0 -66.15,10.77 -88.49,32.24 -22.25,21.55 -33.47,49.15 -33.47,82.88" /><path
         id="path68"
         style="fill:#fff;fill-opacity:1;fill-rule:nonzero;stroke:none"
         d="m 3413.96,2443.45 c -29.61,4.12 -55.72,6.14 -78.33,6.14 -82.27,0 -136.15,-28.39 -161.73,-85.16 v -543.48 h -217.55 v 830.5 h 205.45 l 6.05,-99 c 43.63,76.22 104.09,114.42 181.36,114.42 24.1,0 46.61,-3.41 67.73,-9.98 l -2.98,-213.44" /><path
         id="path70"
         style="fill:#fff;fill-opacity:1;fill-rule:nonzero;stroke:none"
         d="m 3684.34,2228.18 c 0,-78.94 14.55,-139.3 43.63,-181.1 29.09,-41.79 70.8,-62.64 124.94,-62.64 52.66,0 93.84,20.68 123.45,61.86 29.62,41.26 44.42,107.24 44.42,198.01 0,77.36 -14.8,137.29 -44.42,179.87 -29.61,42.49 -71.23,63.78 -124.94,63.78 -53.18,0 -94.36,-21.11 -123.45,-63.43 -29.08,-42.23 -43.63,-107.77 -43.63,-196.35 z m -217.46,15.69 c 0,82.44 15.51,155.86 46.61,220.35 31.11,64.48 75.88,114.34 134.4,149.65 58.44,35.31 126.26,53 203.53,53 109.87,0 199.5,-34.34 269.07,-102.86 69.48,-68.6 108.21,-161.73 116.27,-279.4 l 1.49,-56.86 c 0,-127.4 -34.88,-229.64 -104.62,-306.66 -69.74,-77.01 -163.31,-115.47 -280.72,-115.47 -117.4,0 -211.06,38.37 -281.07,115.12 -70,76.75 -104.96,181.19 -104.96,313.14 v 9.99" /><path
         id="path72"
         style="fill:#fff;fill-opacity:1;fill-rule:nonzero;stroke:none"
         d="m 4581.52,2651.45 6.75,-95.94 c 58.26,74.21 136.24,111.36 234.11,111.36 86.21,0 150.43,-25.84 192.57,-77.54 42.15,-51.69 63.79,-128.97 64.75,-231.83 v -536.55 h -217.46 v 531.21 c 0,47.05 -10.07,81.22 -30.14,102.42 -20.06,21.2 -53.44,31.89 -100.06,31.89 -61.24,0 -107.15,-26.63 -137.73,-79.81 v -585.71 h -217.46 v 830.5 h 204.67" /><path
         id="path74"
         style="fill:#fff;fill-opacity:1;fill-rule:nonzero;stroke:none"
         d="m 5457.76,2651.45 6.75,-92.87 c 57.74,72.2 135.71,108.29 234.11,108.29 104.78,0 176.8,-42.23 215.97,-126.69 57.12,84.46 138.69,126.69 244.53,126.69 88.32,0 154.03,-26.28 197.22,-78.67 43.11,-52.49 64.66,-131.43 64.66,-236.83 v -530.42 h -218.25 v 529.63 c 0,47.05 -9.02,81.48 -27.07,103.21 -18.05,21.82 -49.94,32.68 -95.59,32.68 -65.18,0 -110.39,-31.71 -135.45,-95.23 l 0.79,-570.29 h -217.46 v 528.84 c 0,48.1 -9.29,82.89 -27.86,104.44 -18.58,21.47 -50.21,32.24 -94.8,32.24 -61.77,0 -106.37,-26.11 -133.97,-78.32 v -587.2 h -217.55 v 830.5 h 203.97" /><path
         id="path76"
         style="fill:#fff;fill-opacity:1;fill-rule:nonzero;stroke:none"
         d="m 6947.22,2487.96 c -43.11,0 -78.15,-14.89 -104.96,-44.68 -26.81,-29.88 -43.99,-72.46 -51.52,-128.01 h 302.54 v 17.79 c -1.06,49.33 -14.11,87.44 -39.17,114.42 -25.06,26.99 -60.72,40.48 -106.89,40.48 z m 24.88,-682.34 c -119.42,0 -216.67,37.32 -291.67,112.06 -75,74.73 -112.5,174.26 -112.5,298.59 v 21.46 c 0,83.41 15.86,157.97 47.49,223.77 31.54,65.71 76.31,116.44 134.32,152.02 57.91,35.57 123.97,53.35 198.27,53.35 111.36,0 199.06,-35.83 263.02,-107.5 63.96,-71.67 95.94,-173.22 95.94,-304.73 v -90.59 h -518.51 c 7.01,-54.23 28.21,-97.78 63.61,-130.46 35.4,-32.77 80.17,-49.15 134.31,-49.15 83.76,0 149.21,30.93 196.44,92.87 l 106.8,-122.05 c -32.59,-47.05 -76.75,-83.76 -132.39,-110.13 -55.72,-26.37 -117.4,-39.51 -185.13,-39.51" /><path
         id="path78"
         style="fill:#fff;fill-opacity:1;fill-rule:nonzero;stroke:none"
         d="m 7639.82,2651.45 6.75,-95.94 c 58.26,74.21 136.24,111.36 234.1,111.36 86.22,0 150.44,-25.84 192.58,-77.54 42.14,-51.69 63.79,-128.97 64.75,-231.83 v -536.55 h -217.46 v 531.21 c 0,47.05 -10.08,81.22 -30.14,102.42 -20.07,21.2 -53.45,31.89 -100.06,31.89 -61.24,0 -107.15,-26.63 -137.73,-79.81 v -585.71 h -217.46 v 830.5 h 204.67" /><path
         id="path80"
         style="fill:#fff;fill-opacity:1;fill-rule:nonzero;stroke:none"
         d="m 8572.4,2855.68 v -204.23 h 139.22 v -162.7 H 8572.4 v -414.51 c 0,-30.66 5.78,-52.74 17.34,-65.97 11.48,-13.32 33.56,-19.98 66.24,-19.98 24.01,0 45.39,1.76 63.96,5.35 v -168.05 c -42.67,-13.32 -86.56,-19.97 -131.69,-19.97 -152.53,0 -230.34,78.5 -233.32,235.59 v 447.54 h -118.89 v 162.7 h 118.89 v 204.23 h 217.47" /><path
         id="path82"
         style="fill:#fff;fill-opacity:1;fill-rule:nonzero;stroke:none"
         d="m 551.133,750.68 c 0,77.281 -13.403,136.859 -40.301,178.832 -26.812,41.957 -65.801,62.988 -116.969,62.988 -68.25,0 -115.125,-26.629 -140.711,-79.809 V 572.559 c 26.551,-54.758 73.95,-82.09 142.203,-82.09 103.825,0 155.778,86.742 155.778,260.211 z m 217.461,-16.121 c 0,-127.911 -28.473,-230.418 -85.422,-307.438 -56.953,-77.012 -133.789,-115.48 -230.606,-115.48 -82.269,0 -148.769,29.179 -199.414,87.531 V 7.62109 H 35.6055 V 1157.48 H 237.297 l 7.535,-81.3 c 52.656,64.48 121.434,96.72 206.246,96.72 100.317,0 178.297,-37.93 234.02,-113.63 55.636,-75.79 83.496,-180.141 83.496,-313.231 v -11.48" /><path
         id="path84"
         style="fill:#fff;fill-opacity:1;fill-rule:nonzero;stroke:none"
         d="m 1370.16,949.48 c -29.61,4.122 -55.72,6.141 -78.33,6.141 -82.27,0 -136.15,-28.391 -161.73,-85.172 V 326.98 H 912.547 v 830.5 H 1118 l 6.05,-99 c 43.63,76.22 104.09,114.42 181.36,114.42 24.1,0 46.61,-3.41 67.73,-9.99 l -2.98,-213.43" /><path
         id="path86"
         style="fill:#fff;fill-opacity:1;fill-rule:nonzero;stroke:none"
         d="m 1640.45,734.211 c 0,-78.941 14.55,-139.313 43.64,-181.102 29.08,-41.789 70.79,-62.64 124.94,-62.64 52.65,0 93.83,20.672 123.45,61.851 29.61,41.27 44.42,107.25 44.42,198.008 0,77.371 -14.81,137.301 -44.42,179.883 -29.62,42.488 -71.24,63.777 -124.94,63.777 -53.19,0 -94.37,-21.109 -123.45,-63.429 -29.09,-42.227 -43.64,-107.77 -43.64,-196.348 z m -217.46,15.687 c 0,82.442 15.51,155.864 46.61,220.352 31.11,64.48 75.88,114.34 134.41,149.65 58.44,35.3 126.25,53 203.53,53 109.87,0 199.5,-34.34 269.06,-102.86 69.48,-68.6 108.21,-161.739 116.27,-279.399 l 1.49,-56.86 c 0,-127.402 -34.87,-229.64 -104.62,-306.66 -69.74,-77.012 -163.31,-115.48 -280.71,-115.48 -117.41,0 -211.07,38.379 -281.07,115.129 -70.01,76.75 -104.97,181.191 -104.97,313.14 v 9.988" /><path
         id="path88"
         style="fill:#fff;fill-opacity:1;fill-rule:nonzero;stroke:none"
         d="m 2523.44,731.852 c 0,-75.352 14.81,-134.403 44.42,-177.161 29.53,-42.839 70.18,-64.222 121.87,-64.222 66.24,0 113.64,25.41 142.2,76.133 v 349.757 c -29.08,50.731 -75.96,76.141 -140.71,76.141 -52.13,0 -93.13,-21.809 -123.01,-65.359 -29.88,-43.539 -44.77,-108.641 -44.77,-195.289 z m -217.46,16.558 c 0,127.391 29.7,229.988 89.1,307.79 59.49,77.8 139.66,116.7 240.51,116.7 89.28,0 158.76,-31.28 208.43,-93.66 l 9.03,78.24 h 197.13 V 354.582 c 0,-72.641 -16.12,-135.812 -48.54,-189.602 C 2969.31,111.27 2923.75,70.3516 2865.05,42.2305 2806.35,14.1016 2737.66,0 2658.89,0 c -59.75,0 -117.93,12.1797 -174.61,36.4492 -56.69,24.2617 -99.53,55.6328 -128.62,94.0118 l 96.29,135.098 c 54.14,-61.86 119.85,-92.868 197.13,-92.868 57.74,0 102.6,15.77 134.75,47.219 32.07,31.461 48.1,76.141 48.1,133.969 v 44.5 c -50.11,-57.82 -116.09,-86.738 -197.83,-86.738 -97.87,0 -176.98,38.988 -237.44,117.058 -60.45,77.981 -90.68,181.539 -90.68,310.512 v 9.199" /><path
         id="path90"
         style="fill:#fff;fill-opacity:1;fill-rule:nonzero;stroke:none"
         d="m 3684.08,949.48 c -29.61,4.122 -55.72,6.141 -78.33,6.141 -82.27,0 -136.15,-28.391 -161.74,-85.172 V 326.98 h -217.55 v 830.5 h 205.46 l 6.05,-99 c 43.63,76.22 104.08,114.42 181.36,114.42 24.1,0 46.61,-3.41 67.73,-9.99 l -2.98,-213.43" /><path
         id="path92"
         style="fill:#fff;fill-opacity:1;fill-rule:nonzero;stroke:none"
         d="m 4067.31,481.27 c 32.07,0 61.68,7.269 88.84,21.898 27.07,14.551 47.14,34.082 60.19,58.703 v 142.731 h -81.31 c -108.9,0 -166.81,-38.383 -173.82,-115.133 l -0.79,-13.051 c 0,-27.598 9.55,-50.379 28.65,-68.25 19.01,-17.969 45.12,-26.898 78.24,-26.898 z m 179.87,-154.29 c -10.07,19.969 -17.35,44.77 -21.81,74.469 -52.75,-59.929 -121.18,-89.808 -205.46,-89.808 -79.82,0 -145.88,23.488 -198.28,70.617 -52.48,47.051 -78.67,106.461 -78.67,178.043 0,88.051 31.98,155.597 95.94,202.648 63.95,47.141 156.39,70.879 277.3,71.41 h 100.14 v 47.571 c 0,38.379 -9.72,69.129 -29,92.09 -19.36,23.039 -49.76,34.6 -91.47,34.6 -36.62,0 -65.36,-9.018 -86.13,-26.89 -20.85,-17.878 -31.27,-42.5 -31.27,-73.691 h -217.46 c 0,48.102 14.54,92.611 43.63,133.531 29.09,41 70.27,73.07 123.45,96.37 53.18,23.31 112.85,34.96 179.08,34.96 100.32,0 179.96,-25.76 238.93,-77.19 58.96,-51.43 88.4,-123.71 88.4,-216.839 V 518.852 c 0.53,-78.762 11.31,-138.43 32.42,-178.821 V 326.98 h -219.74" /><path
         id="path94"
         style="fill:#fff;fill-opacity:1;fill-rule:nonzero;stroke:none"
         d="m 4814.75,1157.48 6.75,-92.87 c 57.74,72.19 135.72,108.29 234.11,108.29 104.79,0 176.81,-42.23 215.97,-126.69 57.12,84.46 138.69,126.69 244.53,126.69 88.32,0 154.03,-26.28 197.23,-78.68 43.1,-52.48 64.66,-131.419 64.66,-236.822 V 326.98 h -218.25 v 529.629 c 0,47.051 -9.03,81.481 -27.08,103.211 -18.05,21.821 -49.94,32.68 -95.59,32.68 -65.18,0 -110.39,-31.711 -135.45,-95.23 l 0.79,-570.29 h -217.46 v 528.84 c 0,48.098 -9.29,82.891 -27.86,104.442 -18.58,21.468 -50.21,32.238 -94.8,32.238 -61.77,0 -106.37,-26.109 -133.97,-78.328 V 326.98 h -217.54 v 830.5 h 203.96" /><path
         id="path96"
         style="fill:#fff;fill-opacity:1;fill-rule:nonzero;stroke:none"
         d="m 6158.33,1157.48 6.75,-92.87 c 57.74,72.19 135.72,108.29 234.11,108.29 104.79,0 176.8,-42.23 215.97,-126.69 57.12,84.46 138.69,126.69 244.53,126.69 88.32,0 154.03,-26.28 197.22,-78.68 43.11,-52.48 64.66,-131.419 64.66,-236.822 V 326.98 h -218.24 v 529.629 c 0,47.051 -9.03,81.481 -27.08,103.211 -18.05,21.821 -49.94,32.68 -95.59,32.68 -65.18,0 -110.39,-31.711 -135.45,-95.23 L 6646,326.98 h -217.46 v 528.84 c 0,48.098 -9.29,82.891 -27.86,104.442 -18.58,21.468 -50.21,32.238 -94.8,32.238 -61.77,0 -106.37,-26.109 -133.97,-78.328 V 326.98 h -217.55 v 830.5 h 203.97" /><path
         id="path98"
         style="fill:#fff;fill-opacity:1;fill-rule:nonzero;stroke:none"
         d="m 7647.79,993.988 c -43.1,0 -78.15,-14.886 -104.96,-44.679 -26.81,-29.879 -43.98,-72.457 -51.52,-128.008 h 302.54 v 17.789 c -1.05,49.328 -14.11,87.441 -39.17,114.418 -25.06,26.992 -60.71,40.48 -106.89,40.48 z m 24.88,-682.347 c -119.41,0 -216.67,37.328 -291.67,112.058 -74.99,74.742 -112.49,174.27 -112.49,298.602 v 21.461 c 0,83.406 15.85,157.968 47.48,223.769 31.54,65.709 76.32,116.439 134.32,152.009 57.91,35.58 123.97,53.36 198.27,53.36 111.36,0 199.06,-35.83 263.02,-107.5 63.96,-71.67 95.94,-173.22 95.94,-304.732 v -90.59 h -518.51 c 7.01,-54.238 28.22,-97.777 63.61,-130.457 35.4,-32.769 80.17,-49.152 134.32,-49.152 83.76,0 149.2,30.929 196.43,92.871 l 106.8,-122.051 C 7957.6,414.238 7913.44,377.531 7857.81,351.16 7802.08,324.789 7740.4,311.641 7672.67,311.641" /><path
         id="path100"
         style="fill:#fff;fill-opacity:1;fill-rule:nonzero;stroke:none"
         d="m 10406.3,326.969 h -116.5 V 6348.81 h 116.5 V 326.969" /><path
         id="path102"
         style="fill:#fff;fill-opacity:1;fill-rule:nonzero;stroke:none"
         d="m 12259.7,1673.7 c 31.4,0 56.9,8.66 76.6,25.98 19.7,17.32 29.9,40.35 30.7,69.08 h 160.1 c -0.4,-43.3 -12.2,-82.97 -35.5,-118.95 -23.2,-36.05 -55,-64 -95.3,-83.84 -40.4,-19.87 -84.9,-29.83 -133.7,-29.83 -91.4,0 -163.4,29.01 -216.1,87.06 -52.8,58.06 -79.1,138.28 -79.1,240.62 v 11.21 c 0,98.41 26.1,176.93 78.4,235.58 52.4,58.64 124.3,87.97 215.6,87.97 79.9,0 144,-22.75 192.1,-68.17 48.3,-45.51 72.8,-106 73.6,-181.58 H 12367 c -0.8,33.23 -11,60.23 -30.7,81.01 -19.7,20.78 -45.6,31.17 -77.9,31.17 -39.8,0 -69.8,-14.48 -90,-43.45 -20.3,-28.97 -30.5,-76.01 -30.5,-141.03 v -17.75 c 0,-65.81 10.1,-113.13 30.2,-141.9 20.1,-28.81 50.5,-43.18 91.6,-43.18" /><path
         id="path104"
         style="fill:#fff;fill-opacity:1;fill-rule:nonzero;stroke:none"
         d="m 12768.5,1861.14 c 0,-60.69 11.4,-107.14 34.3,-139.26 22.8,-32.12 55.4,-48.18 98,-48.18 41.4,0 73.6,15.87 96.8,47.59 23.2,31.76 34.9,82.5 34.9,152.29 0,59.51 -11.7,105.64 -34.9,138.35 -23.2,32.71 -55.9,49.08 -97.9,49.08 -41.8,0 -74.1,-16.25 -96.9,-48.77 -22.9,-32.55 -34.3,-82.89 -34.3,-151.1 z m -170.6,12.12 c 0,63.37 12.2,119.86 36.6,169.45 24.4,49.59 59.5,87.97 105.4,115.13 45.8,27.16 99.1,40.74 159.8,40.74 86.1,0 156.5,-26.37 211,-79.12 54.5,-52.74 84.9,-124.38 91.2,-214.91 l 1.1,-43.69 c 0,-98 -27.3,-176.65 -82,-235.85 -54.7,-59.27 -128.1,-88.87 -220.2,-88.87 -92.1,0 -165.6,29.52 -220.5,88.56 -54.9,59.04 -82.4,139.34 -82.4,240.89 v 7.67" /><path
         id="path106"
         style="fill:#fff;fill-opacity:1;fill-rule:nonzero;stroke:none"
         d="m 13712.6,1873.85 c 0,59.44 -10.5,105.29 -31.6,137.57 -21.1,32.27 -51.7,48.41 -91.8,48.41 -53.6,0 -90.3,-20.47 -110.4,-61.4 v -261.55 c 20.9,-42.12 58,-63.18 111.6,-63.18 81.4,0 122.2,66.72 122.2,200.15 z m 170.7,-12.4 c 0,-98.4 -22.4,-177.24 -67.1,-236.44 -44.6,-59.27 -105,-88.87 -180.9,-88.87 -64.6,0 -116.7,22.43 -156.5,67.3 v -301.1 h -170.7 v 884.43 h 158.3 l 6,-62.58 c 41.2,49.59 95.1,74.39 161.6,74.39 78.8,0 140,-29.13 183.7,-87.38 43.7,-58.26 65.6,-138.55 65.6,-240.89 v -8.86" /><path
         id="path108"
         style="fill:#fff;fill-opacity:1;fill-rule:nonzero;stroke:none"
         d="m 14263.5,2061.01 c -33.8,0 -61.3,-11.45 -82.3,-34.4 -21.1,-22.95 -34.6,-55.73 -40.5,-98.44 h 237.3 v 13.66 c -0.7,37.94 -11,67.31 -30.7,88.05 -19.6,20.74 -47.6,31.13 -83.8,31.13 z m 19.5,-524.87 c -93.7,0 -169.9,28.73 -228.8,86.2 -58.8,57.46 -88.3,134.02 -88.3,229.67 v 16.53 c 0,64.16 12.5,121.51 37.2,172.12 24.9,50.54 60,89.51 105.4,116.9 45.5,27.32 97.3,41.02 155.6,41.02 87.4,0 156.1,-27.55 206.4,-82.66 50.1,-55.1 75.2,-133.23 75.2,-234.39 v -69.67 H 14139 c 5.4,-41.72 22.1,-75.18 49.8,-100.37 27.8,-25.19 62.9,-37.79 105.4,-37.79 65.7,0 117.1,23.82 154.1,71.44 l 83.8,-93.87 c -25.6,-36.21 -60.1,-64.47 -103.9,-84.75 -43.6,-20.23 -92.1,-30.38 -145.2,-30.38" /><path
         id="path110"
         style="fill:#fff;fill-opacity:1;fill-rule:nonzero;stroke:none"
         d="m 14799.6,2186.77 5.3,-73.8 c 45.6,57.07 106.8,85.61 183.6,85.61 67.6,0 118.1,-19.88 151.2,-59.63 33,-39.76 49.9,-99.19 50.7,-178.31 v -412.69 h -170.6 v 408.56 c 0,36.21 -7.9,62.47 -23.6,78.8 -15.8,16.33 -42,24.52 -78.5,24.52 -48.1,0 -84.1,-20.47 -108.1,-61.4 V 1547.95 H 14639 v 638.82 h 160.6" /><path
         id="path112"
         style="fill:#fff;fill-opacity:1;fill-rule:nonzero;stroke:none"
         d="m 15486.2,2117.1 c 45.2,54.32 102.1,81.48 170.6,81.48 138.5,0 208.8,-80.49 210.7,-241.48 v -409.15 h -170.6 v 404.43 c 0,36.6 -7.8,63.64 -23.6,81.2 -15.7,17.47 -41.9,26.25 -78.5,26.25 -50,0 -86.2,-19.28 -108.6,-57.86 v -454.02 h -170.7 v 906.87 h 170.7 V 2117.1" /><g
         transform="scale(1.01466)"
         id="g114"><path
           id="path116"
           style="fill:#fff;fill-opacity:1;fill-rule:nonzero;stroke:none"
           d="m 15991,1642.55 c 24.9,0 47.8,5.54 68.7,16.56 21,11.09 36.5,25.91 46.6,44.53 v 108.23 h -62.8 c -84.3,0 -129.1,-29.09 -134.5,-87.28 l -0.6,-9.89 c 0,-20.95 7.3,-38.21 22.1,-51.79 14.8,-13.57 34.9,-20.36 60.5,-20.36 z m 139.1,-116.96 c -7.7,15.13 -13.4,33.94 -16.8,56.44 -40.8,-45.39 -93.7,-68.08 -158.9,-68.08 -61.6,0 -112.8,17.84 -153.3,53.54 -40.6,35.68 -60.8,80.68 -60.8,134.99 0,66.72 24.7,117.93 74.1,153.62 49.6,35.68 121,53.72 214.5,54.11 h 77.4 v 36.07 c 0,29.1 -7.6,52.38 -22.4,69.83 -15,17.46 -38.6,26.19 -70.7,26.19 -28.4,0 -50.6,-6.79 -66.6,-20.36 -16.2,-13.59 -24.2,-32.2 -24.2,-55.87 h -168.2 c 0,36.47 11.3,70.21 33.8,101.25 22.5,31.03 54.3,55.36 95.4,73.04 41.1,17.61 87.3,26.46 138.5,26.46 77.6,0 139.2,-19.47 184.8,-58.5 45.6,-38.95 68.3,-93.76 68.3,-164.36 v -272.9 c 0.4,-59.75 8.7,-104.94 25,-135.58 v -9.89 h -169.9" /></g><g
         transform="scale(1.05544)"
         id="g118"><path
           id="path120"
           style="fill:#fff;fill-opacity:1;fill-rule:nonzero;stroke:none"
           d="m 15908.4,1761.7 c 0,-54.9 11,-97.93 33.1,-129.15 21.9,-31.17 52.1,-46.77 90.5,-46.77 49.2,0 84.5,18.51 105.8,55.46 v 254.93 c -21.7,36.96 -56.6,55.46 -104.6,55.46 -38.9,0 -69.3,-15.89 -91.5,-47.62 -22.2,-31.74 -33.3,-79.17 -33.3,-142.31 z m -161.6,12.04 c 0,92.86 22.1,167.63 66.2,224.32 44.3,56.68 103.8,85.03 178.7,85.03 66.4,0 118.1,-22.75 155,-68.25 l 6.7,57.06 h 146.6 v -585.13 c 0,-52.95 -12,-99.01 -36.1,-138.17 -24.1,-39.16 -57.9,-68.99 -101.6,-89.51 -43.5,-20.5 -94.6,-30.76 -153.2,-30.76 -44.4,0 -87.6,8.88 -129.8,26.56 -42.1,17.74 -74.1,40.57 -95.7,68.54 l 71.7,98.45 c 40.2,-45.12 89,-67.69 146.5,-67.69 42.9,0 76.3,11.46 100.2,34.42 23.9,22.9 35.8,55.46 35.8,97.6 v 32.44 c -37.3,-42.13 -86.4,-63.2 -147.1,-63.2 -72.8,0 -131.7,28.41 -176.6,85.33 -44.9,56.83 -67.3,132.27 -67.3,226.25 v 6.71" /></g><g
         transform="scale(1.09764)"
         id="g122"><path
           id="path124"
           style="fill:#fff;fill-opacity:1;fill-rule:nonzero;stroke:none"
           d="m 16042.9,1877.68 c -30.8,0 -55.8,-10.44 -75,-31.34 -19.2,-20.91 -31.5,-50.78 -36.9,-89.69 h 216.3 v 12.45 c -0.7,34.56 -10.1,61.32 -28,80.22 -17.9,18.89 -43.4,28.36 -76.4,28.36 z m 17.8,-478.18 c -85.4,0 -154.8,26.17 -208.5,78.53 -53.5,52.35 -80.3,122.1 -80.3,209.24 v 15.06 c 0,58.45 11.3,110.7 33.8,156.81 22.7,46.04 54.6,81.54 96,106.5 41.4,24.89 88.6,37.37 141.8,37.37 79.6,0 142.3,-25.1 188,-75.31 45.6,-50.2 68.5,-121.37 68.5,-213.54 v -63.47 h -370.5 c 4.9,-38.01 20.1,-68.49 45.3,-91.44 25.4,-22.95 57.4,-34.43 96.1,-34.43 59.9,0 106.7,21.7 140.5,65.09 l 76.2,-85.53 c -23.3,-32.99 -54.7,-58.73 -94.6,-77.21 -39.8,-18.43 -84,-27.67 -132.3,-27.67" /></g><g
         transform="scale(1.13719)"
         id="g126"><path
           id="path128"
           style="fill:#fff;fill-opacity:1;fill-rule:nonzero;stroke:none"
           d="m 15956.3,1922.96 4.7,-64.9 c 40.1,50.19 93.9,75.28 161.5,75.28 59.5,0 103.8,-17.48 132.9,-52.43 29.1,-34.96 43.9,-87.22 44.6,-156.8 v -362.9 h -150 v 359.27 c 0,31.84 -7,54.93 -20.8,69.29 -13.9,14.36 -36.9,21.56 -69,21.56 -42.3,0 -74,-18 -95.1,-53.99 v -396.13 h -150 v 561.75 h 141.2" /></g><path
         id="path130"
         style="fill:#fff;fill-opacity:1;fill-rule:nonzero;stroke:none"
         d="m 12259.7,464.539 c 31.4,0 56.9,8.66 76.6,25.981 19.7,17.32 29.9,40.351 30.7,69.082 h 160.1 c -0.4,-43.301 -12.2,-82.973 -35.5,-118.954 -23.2,-36.046 -55,-64 -95.3,-83.839 -40.4,-19.868 -84.9,-29.829 -133.7,-29.829 -91.4,0 -163.4,29.008 -216.1,87.059 -52.8,58.063 -79.1,138.281 -79.1,240.621 v 11.211 c 0,98.399 26.1,176.93 78.4,235.578 52.4,58.641 124.3,87.969 215.6,87.969 79.9,0 144,-22.746 192.1,-68.168 48.3,-45.512 72.8,-106 73.6,-181.582 H 12367 c -0.8,33.223 -11,60.23 -30.7,81.012 -19.7,20.781 -45.6,31.172 -77.9,31.172 -39.8,0 -69.8,-14.481 -90,-43.454 -20.3,-28.968 -30.5,-76.007 -30.5,-141.027 v -17.75 c 0,-65.812 10.1,-113.133 30.2,-141.902 20.1,-28.809 50.5,-43.18 91.6,-43.18" /><path
         id="path132"
         style="fill:#fff;fill-opacity:1;fill-rule:nonzero;stroke:none"
         d="m 12804.6,338.789 h -171.3 v 906.871 h 171.3 V 338.789" /><path
         id="path134"
         style="fill:#fff;fill-opacity:1;fill-rule:nonzero;stroke:none"
         d="M 13125.2,338.789 H 12954 v 638.82 h 171.2 z M 12944,1142.92 c 0,25.59 8.5,46.65 25.6,63.18 17.1,16.53 40.5,24.8 69.9,24.8 29.2,0 52.4,-8.27 69.8,-24.8 17.2,-16.53 26,-37.59 26,-63.18 0,-25.97 -8.8,-47.23 -26.3,-63.76 -17.6,-16.53 -40.7,-24.8 -69.5,-24.8 -28.7,0 -51.8,8.27 -69.3,24.8 -17.5,16.53 -26.2,37.79 -26.2,63.76" /><path
         id="path136"
         style="fill:#fff;fill-opacity:1;fill-rule:nonzero;stroke:none"
         d="m 13425.7,977.609 5.2,-71.437 c 45.3,55.5 106.6,83.246 183.7,83.246 82.3,0 138.8,-32.469 169.5,-97.418 44.9,64.949 108.8,97.418 191.8,97.418 69.3,0 120.9,-20.188 154.7,-60.539 33.9,-40.34 50.8,-101.039 50.8,-182.121 V 338.789 h -171.2 v 407.383 c 0,36.207 -7.1,62.656 -21.3,79.43 -14.1,16.687 -39.2,25.066 -74.9,25.066 -51.3,0 -86.7,-24.398 -106.3,-73.207 l 0.6,-438.672 h -170.6 v 406.789 c 0,37 -7.4,63.762 -21.9,80.293 -14.6,16.539 -39.4,24.797 -74.4,24.797 -48.4,0 -83.5,-20.066 -105.1,-60.219 v -451.66 h -170.7 v 638.82 h 160.1" /><path
         id="path138"
         style="fill:#fff;fill-opacity:1;fill-rule:nonzero;stroke:none"
         d="m 14541.5,457.461 c 25.2,0 48.5,5.629 69.8,16.809 21.3,11.25 36.9,26.289 47.2,45.179 V 629.27 h -63.7 c -85.5,0 -130.9,-29.52 -136.5,-88.559 l -0.5,-10.043 c 0,-21.258 7.4,-38.77 22.3,-52.547 15,-13.769 35.5,-20.66 61.4,-20.66 z m 141.2,-118.672 c -7.9,15.352 -13.6,34.441 -17.1,57.27 -41.4,-46.059 -95.1,-69.079 -161.2,-69.079 -62.6,0 -114.5,18.098 -155.6,54.321 -41.1,36.211 -61.7,81.867 -61.7,136.969 0,67.699 25.1,119.66 75.3,155.871 50.2,36.211 122.7,54.507 217.6,54.91 h 78.5 v 36.597 c 0,29.52 -7.6,53.141 -22.7,70.852 -15.2,17.711 -39.1,26.57 -71.7,26.57 -28.8,0 -51.4,-6.89 -67.7,-20.66 -16.3,-13.781 -24.4,-32.672 -24.4,-56.68 h -170.7 c 0,37 11.4,71.239 34.2,102.731 22.9,31.488 55.1,56.168 96.9,74.109 41.7,17.871 88.5,26.848 140.5,26.848 78.7,0 141.2,-19.758 187.4,-59.359 46.3,-39.52 69.4,-95.129 69.4,-166.77 V 486.391 c 0.4,-60.621 8.9,-106.469 25.4,-137.571 v -10.031 h -172.4" /><path
         id="path140"
         style="fill:#fff;fill-opacity:1;fill-rule:nonzero;stroke:none"
         d="M 15165,1134.66 V 977.609 h 109.2 V 852.441 H 15165 v -318.82 c 0,-23.621 4.5,-40.543 13.6,-50.769 9,-10.243 26.3,-15.352 51.9,-15.352 18.9,0 35.6,1.371 50.2,4.129 V 342.328 c -33.5,-10.238 -67.9,-15.348 -103.3,-15.348 -119.7,0 -180.7,60.418 -183,181.25 v 344.211 h -93.3 v 125.168 h 93.3 v 157.051 h 170.6" /><path
         id="path142"
         style="fill:#fff;fill-opacity:1;fill-rule:nonzero;stroke:none"
         d="m 15643.8,851.852 c -33.8,0 -61.3,-11.454 -82.3,-34.403 -21.1,-22.949 -34.6,-55.73 -40.5,-98.437 h 237.3 v 13.656 c -0.7,37.941 -11,67.312 -30.7,88.051 -19.6,20.742 -47.6,31.133 -83.8,31.133 z m 19.5,-524.872 c -93.7,0 -169.9,28.731 -228.8,86.2 -58.8,57.461 -88.3,134.019 -88.3,229.672 v 16.527 c 0,64.16 12.5,121.512 37.2,172.121 24.9,50.539 60,89.508 105.4,116.898 45.5,27.321 97.3,41.02 155.6,41.02 87.4,0 156.1,-27.547 206.4,-82.66 50.1,-55.098 75.2,-133.238 75.2,-234.387 v -69.672 h -406.7 c 5.4,-41.719 22.1,-75.179 49.8,-100.371 27.8,-25.187 62.9,-37.789 105.4,-37.789 65.7,0 117.1,23.82 154.1,71.441 l 83.8,-93.871 c -25.6,-36.211 -60.1,-64.48 -103.9,-84.75 -43.6,-20.23 -92.1,-30.379 -145.2,-30.379" /><g
         transform="scale(1.03418)"
         id="g144"><path
           id="path146"
           style="fill:#fff;fill-opacity:1;fill-rule:nonzero;stroke:none"
           d="m 16041.4,449.187 c 30.4,0 55.2,8.374 74.2,25.122 19.1,16.748 28.9,39.018 29.7,66.799 h 154.7 c -0.4,-41.87 -11.8,-80.231 -34.2,-115.022 -22.5,-34.856 -53.2,-61.885 -92.2,-81.069 -39,-19.211 -82.2,-28.843 -129.4,-28.843 -88.2,0 -157.9,28.049 -208.9,84.182 -51,56.143 -76.5,133.711 -76.5,232.669 v 10.84 c 0,95.147 25.3,171.082 75.9,227.793 50.7,56.702 120.1,85.061 208.5,85.061 77.2,0 139.1,-21.994 185.7,-65.915 46.7,-44.008 70.4,-102.497 71.1,-175.581 h -154.7 c -0.8,32.125 -10.6,58.24 -29.7,78.334 -19,20.095 -44.2,30.142 -75.3,30.142 -38.5,0 -67.5,-14.002 -87.1,-42.017 -19.6,-28.011 -29.4,-73.496 -29.4,-136.367 v -17.163 c 0,-63.637 9.7,-109.394 29.2,-137.213 19.3,-27.856 48.8,-41.752 88.4,-41.752" /></g><g
         transform="scale(1.07431)"
         id="g148"><path
           id="path150"
           style="fill:#fff;fill-opacity:1;fill-rule:nonzero;stroke:none"
           d="m 16037.3,792.927 c -31.5,0 -57,-10.661 -76.6,-32.023 -19.6,-21.362 -32.2,-51.875 -37.7,-91.628 h 220.9 v 12.711 c -0.7,35.317 -10.2,62.657 -28.6,81.961 -18.2,19.307 -44.3,28.979 -78,28.979 z m 18.2,-488.565 c -87.2,0 -158.2,26.744 -213,80.237 -54.7,53.486 -82.2,124.749 -82.2,213.785 v 15.384 c 0,59.722 11.6,113.106 34.6,160.215 23.2,47.043 55.9,83.316 98.1,108.812 42.4,25.431 90.6,38.182 144.9,38.182 81.3,0 145.3,-25.641 192.1,-76.942 46.6,-51.286 70,-124.022 70,-218.174 v -64.852 h -378.6 c 5.1,-38.833 20.6,-69.979 46.4,-93.428 25.9,-23.445 58.5,-35.175 98.1,-35.175 61.2,0 109,22.172 143.4,66.499 l 78,-87.377 c -23.8,-33.707 -55.9,-60.021 -96.7,-78.888 -40.6,-18.831 -85.7,-28.278 -135.1,-28.278" /></g><g
         transform="scale(1.11387)"
         id="g152"><path
           id="path154"
           style="fill:#fff;fill-opacity:1;fill-rule:nonzero;stroke:none"
           d="m 15949.1,877.673 4.8,-66.256 c 40.9,51.236 95.9,76.858 164.8,76.858 60.7,0 106.1,-17.847 135.8,-53.534 29.6,-35.693 44.8,-89.048 45.5,-160.081 V 304.156 h -153.2 v 366.797 c 0,32.506 -7.1,56.083 -21.1,70.742 -14.2,14.663 -37.8,22.013 -70.5,22.013 -43.2,0 -75.5,-18.376 -97.1,-55.122 V 304.156 H 15805 v 573.517 h 144.1" /></g><g
         transform="scale(1.14144)"
         id="g156"><path
           id="path158"
           style="fill:#fff;fill-opacity:1;fill-rule:nonzero;stroke:none"
           d="M 16198.6,994.064 V 856.473 h 95.6 V 746.815 h -95.6 V 467.5 c 0,-20.694 3.9,-35.519 11.9,-44.479 7.9,-8.973 23.1,-13.449 45.5,-13.449 16.6,0 31.1,1.201 44,3.617 V 299.91 c -29.4,-8.97 -59.6,-13.446 -90.6,-13.446 -104.8,0 -158.2,52.932 -160.3,158.791 v 301.56 h -81.8 v 109.658 h 81.8 v 137.591 h 149.5" /></g><g
         transform="scale(1.16903)"
         id="g160"><path
           id="path162"
           style="fill:#fff;fill-opacity:1;fill-rule:nonzero;stroke:none"
           d="m 16297.9,699.391 c -19.8,2.696 -37.2,4.036 -52.5,4.036 -55.2,0 -91.3,-18.682 -108.5,-56.052 V 289.803 h -146 v 546.453 h 137.9 l 4.1,-65.148 c 29.3,50.162 69.8,75.25 121.7,75.25 16.1,0 31.3,-2.189 45.4,-6.57 l -2.1,-140.397" /></g><g
         transform="scale(1.20736)"
         id="g164"><path
           id="path166"
           style="fill:#fff;fill-opacity:1;fill-rule:nonzero;stroke:none"
           d="m 16066.7,705.548 c -28.1,0 -50.9,-9.486 -68.3,-28.494 -17.4,-19.008 -28.5,-46.159 -33.4,-81.531 h 196.5 v 11.311 c -0.6,31.425 -9.1,55.751 -25.4,72.928 -16.3,17.18 -39.4,25.786 -69.4,25.786 z m 16.1,-434.726 c -77.7,0 -140.8,23.796 -189.6,71.395 -48.7,47.592 -73,111.002 -73,190.226 v 13.689 c 0,53.141 10.3,100.642 30.8,142.56 20.5,41.859 49.6,74.135 87.3,96.821 37.7,22.628 80.6,33.974 128.9,33.974 72.4,0 129.3,-22.815 170.8,-68.463 41.6,-45.635 62.4,-110.355 62.4,-194.131 v -57.706 h -336.9 c 4.5,-34.554 18.3,-62.268 41.3,-83.133 23,-20.861 52.1,-31.299 87.3,-31.299 54.4,0 96.9,19.73 127.6,59.172 l 69.4,-77.749 c -21.2,-29.992 -49.8,-53.406 -86.1,-70.194 -36.1,-16.756 -76.3,-25.162 -120.2,-25.162" /></g></g></g></svg>